<?xml version="1.0" encoding="UTF-8"?>
<svg id="Layer_2" data-name="Layer 2" xmlns="http://www.w3.org/2000/svg" xmlns:xlink="http://www.w3.org/1999/xlink" viewBox="0 0 380 396.38">
  <defs>
    <style>
      .cls-1 {
        fill: url(#linear-gradient-2);
      }

      .cls-2 {
        letter-spacing: .23em;
      }

      .cls-3 {
        letter-spacing: .23em;
      }

      .cls-4 {
        fill: url(#linear-gradient-3);
      }

      .cls-5 {
        letter-spacing: .1em;
      }

      .cls-6 {
        fill: #606060;
        font-family: ArchivoExpanded-SemiBold, 'Archivo Expanded';
        font-size: 29.69px;
        font-weight: 600;
      }

      .cls-7 {
        fill: url(#linear-gradient);
      }

      .cls-8 {
        letter-spacing: .09em;
      }
    </style>
    <linearGradient id="linear-gradient" x1="54.14" y1="139.83" x2="326.09" y2="139.83" gradientUnits="userSpaceOnUse">
      <stop offset="0" stop-color="#12932a"/>
      <stop offset="1" stop-color="#056012"/>
    </linearGradient>
    <linearGradient id="linear-gradient-2" x1="249.44" y1="80.16" x2="270.76" y2="80.16" xlink:href="#linear-gradient"/>
    <linearGradient id="linear-gradient-3" x1="0" y1="322.61" x2="378.18" y2="322.61" xlink:href="#linear-gradient"/>
  </defs>
  <g id="Layer_1-2" data-name="Layer 1">
    <g>
      <g>
        <path class="cls-7" d="M325.46,35.12c-.01-1.79-1.59-4.49-3.16-5.22-8.76-4.15-17.58-8.26-26.67-11.55C245.02-.04,192.97-4.04,139.92,3.82c-28.45,4.21-55.71,12.55-81.47,25.56-3.05,1.53-4.34,3.35-4.29,6.93.23,15.22.1,30.46.1,45.68h-.05v13.05c.04,18.72-1,37.59,3.65,55.94,17.39,68.76,61.56,110.69,129.6,128.42,1.52.39,3.34.31,4.9-.08,16.25-4.14,32.12-9.35,46.69-17.83,53.34-31.05,82.6-77.53,86.19-139.06,1.69-29.01.39-58.2.23-87.31ZM69.8,151.41c7.55,1.79,15.08,3.43,22.49,5.49,1.3.36,2.36,2.39,3.03,3.86,3.59,8,7.01,16.06,10.65,24.47.05-.05.08-.11.13-.15-.1.58-.14,1.16-.14,1.77v.17c-5.36,3.14-10.97,6.42-16.95,9.94-9.47-14.43-15.95-29.6-19.21-45.54ZM109.2,77.56c.08,2.47.09,4.96.09,7.45.49,9.96,2.4,16,2.53,16.41.01.01.01.02.01.02,0,0,.01.04.04.1,1.22,2.85,2.47,5.79,3.73,8.73l-.15-.3c.02,1.64.02,3.28.04,4.93l.18-.32c.13,1.57.26,3.14.39,4.71-.32.24-.64.48-.96.71-2.34-3.45-4.68-6.9-7.05-10.39,0-.01-.01-.02-.02-.04-1.12-1.66-2.25-3.33-3.39-5-.39-.58-.78-1.15-1.18-1.74.07-.04.13-.07.19-.1-2-3.95-3.23-7.96-3.97-11.67-.11.05-.23.11-.34.17-.01-.77-.02-1.55-.04-2.32-.08-5.16-.15-10.08-.24-14.89-.05-3.35-.11-6.67-.17-9.97-.05-3.28,2.22-3.14,4.48-3.14,16.56.01,33.11-.02,49.66-.02h119.88c7.31,0,7.07.04,7.39,7.57.68,16.47-1.9,32.09-12.32,45.41-9.33,11.93-21.99,18.54-36.94,19.57-4.48.31-10.15-1.74-13.64-4.65-11.29-9.39-21.9-19.57-32.6-29.66-9.12-8.59-17.87-17.58-27.05-26.11-1.89-1.76-4.88-3.18-7.4-3.26-11.86-.31-23.74-.01-35.61-.14-4.3-.05-5.87,1.5-5.65,5.91.04.67.07,1.34.1,2.01ZM208.85,190.92c.96-.17,2.59.55,3.1,1.35,3.78,6.04,7.36,12.23,11.55,19.28-9.57,1.94-18.58,3.74-28.18,5.68v-23.44c4.5-.99,8.98-2.09,13.52-2.88ZM200.91,157.09c3.62-5.97,7.04-11.61,10.46-17.26,6.14,1.83,12.82,3.81,19.66,5.85-9.06,6.13-19.32,9.26-30.11,11.41ZM220.13,187.18c5.22-3.65,9.98-6.98,15.21-10.62,4.9,3.18,10.1,6.56,15.43,10.02-.06.48-.1.96-.1,1.46,0,1.85.44,3.6,1.24,5.15-6.31,4.61-12.66,9.26-19.73,14.42-4.34-7.34-8.19-13.88-12.05-20.42ZM254.23,188.04c0-4.25,3.47-7.72,7.72-7.72s7.72,3.47,7.72,7.72-3.46,7.72-7.72,7.72-7.72-3.47-7.72-7.72ZM266.37,177.64c-1.35-.57-2.85-.89-4.41-.89-2.4,0-4.63.75-6.46,2.03-4.4-3.1-8.85-6.24-13.37-9.42,2.95-4.04,5.61-7.83,8.45-11.48.61-.78,1.88-1.45,2.86-1.47,6.67-.12,13.33-.06,21.53-.06-3.11,7.71-5.86,14.49-8.6,21.3ZM175.63,120.01c0,4.74-3.84,8.57-8.57,8.57s-8.57-3.83-8.57-8.57,3.84-8.57,8.57-8.57,8.57,3.84,8.57,8.57ZM126.97,156.59c.95.02,2.1.9,2.82,1.7,2.76,3.09,5.36,6.33,8.35,9.89-4.79,3.22-9.42,6.32-14.24,9.54-1.87-1.35-4.17-2.16-6.66-2.16-1.68,0-3.27.37-4.69,1.02-2.42-5.72-5.25-12.48-8.45-20.07,8.57,0,15.72-.06,22.87.08ZM146.99,207.66c-6.99-5.25-13.48-10.14-20.04-15.06,1-1.69,1.58-3.66,1.58-5.75,0-.32-.01-.63-.04-.94,5.28-3.3,10.53-6.58,15.58-9.75,5.15,3.61,10.03,7.05,15.5,10.89-3.9,6.38-7.93,12.98-12.59,20.61ZM168.89,190.58c5.15,1.11,10.28,2.22,15.68,3.4v23.22c-9.59-1.89-18.72-3.71-28.72-5.67,4.87-7.83,8.91-14.3,13.05-20.95ZM109.52,186.85c0-4.25,3.46-7.72,7.72-7.72s7.72,3.47,7.72,7.72-3.47,7.72-7.72,7.72-7.72-3.47-7.72-7.72ZM93.72,206.03c6.35-3.74,11.56-6.82,16.95-10.01,1.85,1.33,4.12,2.12,6.57,2.12.56,0,1.09-.04,1.63-.12,7.18,5.86,14.25,11.61,22.2,18.09-6.29,5.8-12.74,11.75-20.3,18.72-8.62-9.17-17.55-18.69-27.05-28.8ZM184.76,266.26c-20.31-4.86-38.03-13.12-54.38-24.6,6.54-7.18,12.63-14.01,18.93-20.64.72-.76,2.66-.84,3.9-.59,9.47,1.94,18.93,3.96,28.33,6.17,1.22.3,3.05,1.78,3.08,2.75.21,12,.14,24.02.14,36.92ZM168.62,158.42c-16.89.95-33.99-10.89-39.3-27.22-5.17-15.84,1.33-34.43,15.12-43.28,7.2-4.63,7.25-4.62,13.64,2.08-10.35,4.35-18.43,10.91-21.5,22.1-1.76,6.51-1.3,12.95,1.21,19.18,5.11,12.64,18.88,20.48,32.9,18.81,12.41-1.49,20.75-10.74,23.02-26.48,2.16,1.98,3.6,3.62,5.35,4.83,2.94,2.01,2.8,4.4,1.78,7.39-4.14,12.3-17.54,21.76-32.22,22.58ZM195.25,266.07v-38.43c11.28-2.52,22.44-5.02,33.81-7.55,6.27,6.69,12.98,13.85,20,21.33-16.01,11.87-33.97,19.6-53.81,24.65ZM257.38,234.94c-6.69-6.39-13.17-12.59-19.8-18.91,7.72-6.08,14.57-11.46,21.67-17.04.87.21,1.77.33,2.71.33,2.88,0,5.5-1.07,7.5-2.85,4.98,3.05,9.86,6.07,15.15,9.32-7.37,11.23-16.54,20.49-27.23,29.15ZM290.59,197.02c-5.88-3.38-11.47-6.61-17.39-10.01-.06-.67-.18-1.31-.34-1.93,2.8-5.36,6.38-10.33,7.88-15.87,2.39-8.94,6.11-14.52,16.45-14.34,4.03.06,8.11-2.69,12.72-4.37-3.16,16.73-10.09,31.67-19.31,46.52ZM314.02,57.72c.04,23.26-.33,46.52-.21,69.77.05,7.05-3.28,11.42-9.12,14.2-3.58,1.7-7.46,3.64-11.29,3.8-11.47.5-22.96.18-36.1.18,3.97-5.24,6.8-10.36,10.87-14.17,13.71-12.86,21.12-28.7,23.22-47.09.76-6.61.63-13.36.44-20.04-.26-9.84-5.73-15.08-15.51-15.08-57.88-.04-115.76-.01-173.65.02-8.03.01-14.24,4.53-14.81,12.11-1.43,19.22-.95,38.36,10.43,55.1,3.81,5.59,8.37,11.06,13.7,15.12,4.97,3.77,6.88,8.6,9.12,13.43-12.63,0-25.06.17-37.47-.14-2.66-.07-5.35-1.79-7.92-2.96-6.98-3.14-10.18-8.4-10.13-16.25.18-27.6.11-55.2-.1-82.81-.02-3.78,2.17-4.91,4.74-6.11,19.76-9.27,40.38-16.04,61.88-19.91,55.5-9.98,109.91-6.32,162.9,13.64,6.07,2.29,13.93,3.9,17.2,8.49,3.16,4.42,1.78,12.31,1.79,18.68Z"/>
        <path class="cls-1" d="M263.93,88.01l5.22,2.84c3.28-6.04.59-17.77.27-19.09l-.55-2.28h-19.43v5.94h14.67c.7,3.99,1.24,9.98-.18,12.59Z"/>
      </g>
      <g>
        <path class="cls-4" d="M22.21,343.78c-3.1,0-5.99-.19-8.69-.57s-5.06-1.05-7.09-2.02-3.6-2.33-4.74-4.08c-1.13-1.75-1.7-3.99-1.7-6.73v-.3c0-.12.02-.22.06-.3h8.93c-.04.16-.07.35-.09.57-.02.22-.03.47-.03.75,0,1.23.54,2.23,1.61,3.01,1.07.77,2.6,1.34,4.59,1.7,1.98.36,4.31.54,6.97.54,1.15,0,2.31-.05,3.48-.15s2.29-.25,3.37-.45c1.07-.2,2.03-.48,2.89-.83.85-.36,1.53-.8,2.02-1.34s.75-1.16.75-1.88c0-1.03-.47-1.86-1.4-2.47-.93-.62-2.19-1.12-3.78-1.52-1.59-.4-3.37-.73-5.36-1.01-1.98-.28-4.04-.58-6.16-.92-2.12-.34-4.18-.79-6.16-1.37-1.99-.58-3.77-1.32-5.36-2.23-1.59-.91-2.85-2.09-3.78-3.54-.93-1.45-1.4-3.23-1.4-5.33,0-1.91.45-3.59,1.37-5.06.91-1.47,2.26-2.71,4.05-3.72,1.79-1.01,3.98-1.78,6.58-2.29,2.6-.52,5.59-.77,8.96-.77s6.39.28,8.93.83c2.54.56,4.64,1.35,6.31,2.38,1.67,1.03,2.91,2.27,3.72,3.72.81,1.45,1.22,3.07,1.22,4.85v.95h-8.81v-.77c0-.87-.48-1.65-1.43-2.32-.95-.67-2.24-1.21-3.87-1.61-1.63-.4-3.47-.6-5.54-.6-2.86,0-5.18.18-6.97.54-1.78.36-3.1.84-3.93,1.46-.83.62-1.25,1.3-1.25,2.05,0,.91.47,1.65,1.4,2.2.93.56,2.19,1,3.78,1.34s3.37.65,5.36.92c1.98.28,4.04.6,6.16.95,2.12.36,4.18.81,6.16,1.37,1.98.56,3.77,1.3,5.36,2.23,1.59.93,2.85,2.1,3.78,3.51.93,1.41,1.4,3.15,1.4,5.21,0,3.18-.91,5.73-2.74,7.65-1.82,1.93-4.37,3.31-7.62,4.17-3.26.85-7.03,1.28-11.32,1.28ZM48.53,343.06l20.49-40.91h10.24l20.48,40.91h-9.94l-3.87-7.92h-24.24l-3.87,7.92h-9.29ZM65.26,327.82h17.09l-4.76-10c-.2-.44-.49-1.08-.86-1.94-.38-.85-.75-1.73-1.13-2.62-.38-.89-.71-1.67-1.01-2.32-.3-.66-.47-1-.51-1.04h-.48c-.36.79-.77,1.71-1.22,2.74-.46,1.03-.89,2.03-1.31,2.98-.42.95-.77,1.71-1.04,2.26l-4.77,9.94ZM106.95,343.06v-40.91h38.94v7.56h-29.89v9.88h27.03v7.56h-27.03v15.9h-9.05ZM153.93,343.06v-40.91h41.38v7.56h-32.33v8.75h28.76v7.56h-28.76v9.47h32.81v7.56h-41.86ZM228,343.06v-40.91h8.52l22.39,21.5c.52.44,1.13,1.03,1.85,1.79.71.76,1.46,1.53,2.23,2.32.78.79,1.44,1.51,1.99,2.14h.48c-.04-.87-.09-1.94-.15-3.19-.06-1.25-.09-2.27-.09-3.07v-21.5h8.7v40.91h-8.34l-22.45-21.74c-1.07-1.03-2.19-2.17-3.36-3.42-1.17-1.25-2.11-2.25-2.83-3.01h-.42c.04.52.08,1.42.12,2.71.04,1.29.06,2.77.06,4.44v21.02h-8.7ZM285.46,343.06v-40.91h41.39v7.56h-32.33v8.75h28.76v7.56h-28.76v9.47h32.81v7.56h-41.86ZM350.96,343.06v-32.93h-18.16v-7.98h45.38v7.98h-18.16v32.93h-9.05Z"/>
        <text class="cls-6" transform="translate(2.78 384.33)"><tspan class="cls-2" x="0" y="0">INS</tspan><tspan class="cls-5" x="84.65" y="0">T</tspan><tspan class="cls-2" x="111.65" y="0">ALL</tspan><tspan class="cls-8" x="201.56" y="0">A</tspan><tspan class="cls-3" x="231.34" y="0">TIONS</tspan></text>
      </g>
    </g>
  </g>
</svg>